<?xml version="1.0" encoding="utf-8"?>
<!DOCTYPE svg PUBLIC "-//W3C//DTD SVG 1.0//EN" "http://www.w3.org/TR/2001/REC-SVG-20010904/DTD/svg10.dtd">
<svg version="1.0" xmlns="http://www.w3.org/2000/svg" xmlns:xlink="http://www.w3.org/1999/xlink"
	 viewBox="57 40 38 33">

			<path fill="#0078D7" d="M85.7,39.7H66.4l-9.6,16.7l9.6,16.7h19.3l9.6-16.7L85.7,39.7z M85.8,63.9c0,1.4-1.2,2.6-2.6,2.6H69
				c-1.4,0-2.6-1.2-2.6-2.6V49c0-1.4,1.2-2.6,2.6-2.6h10.5c1,0,2,0,2,0h0.3l4,4v2.1V63.9z"/>
			<path fill="#0078D7" d="M74.6,59.1c0-0.2-0.1-0.3-0.1-0.4c0-0.1-0.1-0.2-0.2-0.3c-0.1-0.1-0.1-0.1-0.2-0.1c-0.1,0-0.2,0-0.3,0
				c-0.2,0-0.3,0-0.4,0.1s-0.2,0.2-0.3,0.4C73,59,73,59.2,73,59.4c0,0.2,0,0.5,0,0.9c0,0.4,0,0.7,0,1c0,0.3,0.1,0.5,0.2,0.6
				c0.1,0.2,0.2,0.3,0.3,0.3c0.1,0.1,0.2,0.1,0.4,0.1c0.1,0,0.2,0,0.3-0.1c0.1,0,0.2-0.1,0.2-0.2c0.1-0.1,0.1-0.2,0.2-0.3
				c0-0.1,0.1-0.2,0.1-0.4c0-0.1,0-0.3,0.1-0.5c0-0.2,0-0.4,0-0.6c0-0.3,0-0.5,0-0.7C74.6,59.4,74.6,59.3,74.6,59.1z"/>
			<path fill="#0078D7" d="M79.1,51.3c0-0.2-0.1-0.3-0.1-0.4c0-0.1-0.1-0.2-0.2-0.3c-0.1-0.1-0.1-0.1-0.2-0.1c-0.1,0-0.2,0-0.3,0
				c-0.2,0-0.3,0-0.4,0.1c-0.1,0.1-0.2,0.2-0.3,0.4c-0.1,0.2-0.1,0.4-0.1,0.6c0,0.2,0,0.5,0,0.9c0,0.4,0,0.7,0,1
				c0,0.3,0.1,0.5,0.2,0.6c0.1,0.2,0.2,0.3,0.3,0.3c0.1,0.1,0.2,0.1,0.4,0.1c0.1,0,0.2,0,0.3-0.1c0.1,0,0.2-0.1,0.2-0.2
				c0.1-0.1,0.1-0.2,0.2-0.3c0-0.1,0.1-0.2,0.1-0.4c0-0.1,0-0.3,0.1-0.5c0-0.2,0-0.4,0-0.6c0-0.3,0-0.5,0-0.7
				C79.2,51.7,79.2,51.5,79.1,51.3z"/>
			<path fill="#0078D7" d="M81.1,47.8c-0.4,0-1,0-1.6,0H69c-0.7,0-1.2,0.5-1.2,1.2v14.9c0,0.7,0.5,1.2,1.2,1.2h14.2
				c0.6,0,1.2-0.5,1.2-1.2V51.1h-3.2V47.8z M72.2,50.8c0,0,0-0.1,0-0.1c0,0,0-0.1,0-0.1c0,0,0,0,0.1-0.1l1.2-0.8c0,0,0,0,0.1,0
				c0,0,0.1,0,0.1,0c0,0,0.1,0,0.1,0c0.1,0,0.1,0,0.2,0c0.1,0,0.2,0,0.3,0c0.1,0,0.1,0,0.2,0c0,0,0.1,0,0.1,0c0,0,0,0,0,0.1v4.7h0.9
				c0,0,0.1,0,0.1,0c0,0,0,0,0.1,0.1s0,0.1,0,0.1c0,0.1,0,0.1,0,0.2c0,0.1,0,0.2,0,0.2c0,0.1,0,0.1,0,0.1c0,0,0,0.1-0.1,0.1
				c0,0,0,0-0.1,0h-3.1c0,0,0,0-0.1,0c0,0,0,0-0.1-0.1c0,0,0-0.1,0-0.1c0-0.1,0-0.1,0-0.2c0-0.1,0-0.2,0-0.2c0-0.1,0-0.1,0-0.1
				c0,0,0-0.1,0.1-0.1c0,0,0,0,0.1,0h1.1v-3.7l-0.9,0.5c-0.1,0-0.1,0.1-0.2,0.1c0,0-0.1,0-0.1,0c0,0,0-0.1-0.1-0.1
				c0-0.1,0-0.1,0-0.3C72.2,50.9,72.2,50.8,72.2,50.8z M75.7,61.5c-0.1,0.4-0.2,0.7-0.4,0.9c-0.2,0.3-0.4,0.5-0.6,0.6
				c-0.3,0.1-0.6,0.2-1,0.2c-0.4,0-0.7-0.1-1-0.2c-0.3-0.1-0.5-0.3-0.6-0.6s-0.3-0.6-0.3-0.9c-0.1-0.4-0.1-0.8-0.1-1.2
				c0-0.5,0-0.9,0.1-1.2c0.1-0.4,0.2-0.7,0.4-0.9s0.4-0.5,0.6-0.6c0.3-0.1,0.6-0.2,1-0.2c0.4,0,0.7,0.1,1,0.2
				c0.3,0.1,0.5,0.3,0.6,0.6c0.1,0.3,0.3,0.6,0.3,0.9c0.1,0.4,0.1,0.8,0.1,1.2C75.8,60.8,75.8,61.2,75.7,61.5z M80.2,62.9
				c0,0.1,0,0.1,0,0.1c0,0,0,0.1-0.1,0.1c0,0,0,0-0.1,0h-3.1c0,0,0,0-0.1,0c0,0,0,0-0.1-0.1c0,0,0-0.1,0-0.1c0-0.1,0-0.1,0-0.2
				c0-0.1,0-0.2,0-0.2c0-0.1,0-0.1,0-0.1c0,0,0-0.1,0.1-0.1c0,0,0,0,0.1,0H78v-3.7l-0.9,0.5c-0.1,0-0.1,0.1-0.2,0.1c0,0-0.1,0-0.1,0
				c0,0,0-0.1-0.1-0.1c0-0.1,0-0.1,0-0.3c0-0.1,0-0.1,0-0.2c0,0,0-0.1,0-0.1c0,0,0-0.1,0-0.1s0,0,0.1-0.1l1.2-0.8c0,0,0,0,0.1,0
				c0,0,0.1,0,0.1,0c0,0,0.1,0,0.1,0c0.1,0,0.1,0,0.2,0c0.1,0,0.2,0,0.3,0c0.1,0,0.1,0,0.2,0c0,0,0.1,0,0.1,0c0,0,0,0,0,0.1v4.7H80
				c0,0,0.1,0,0.1,0c0,0,0,0,0.1,0.1c0,0,0,0.1,0,0.1c0,0.1,0,0.1,0,0.2C80.2,62.8,80.2,62.9,80.2,62.9z M80.3,53.7
				c-0.1,0.4-0.2,0.7-0.4,0.9c-0.2,0.3-0.4,0.5-0.6,0.6c-0.3,0.1-0.6,0.2-1,0.2c-0.4,0-0.7-0.1-1-0.2c-0.3-0.1-0.5-0.3-0.6-0.6
				c-0.1-0.2-0.3-0.6-0.3-0.9s-0.1-0.8-0.1-1.2c0-0.5,0-0.9,0.1-1.2c0.1-0.4,0.2-0.7,0.4-0.9c0.2-0.3,0.4-0.5,0.6-0.6
				c0.3-0.1,0.6-0.2,1-0.2c0.4,0,0.7,0.1,1,0.2c0.3,0.1,0.5,0.3,0.6,0.6c0.1,0.3,0.3,0.6,0.3,0.9c0.1,0.4,0.1,0.8,0.1,1.2
				C80.4,53,80.3,53.4,80.3,53.7z"/>
</svg>
